<svg xmlns="http://www.w3.org/2000/svg" viewBox="0 0 842 475" width="842" height="475" role="img" aria-label="VIVAMAQ logo">
  <title>VIVAMAQ logo</title>
  <g fill="#cf003d" fill-rule="evenodd">
    <path d="M 462 324 L 451 368 L 451 372 L 448 380 L 445 397 L 443 401 L 443 405 L 441 409 L 441 413 L 437 426 L 437 430 L 435 435 L 435 442 L 457 442 L 458 441 L 470 393 L 471 385 L 475 384 L 501 443 L 510 443 L 530 399 L 535 385 L 537 383 L 540 384 L 553 442 L 576 442 L 577 439 L 560 373 L 560 369 L 558 365 L 558 361 L 556 357 L 556 353 L 554 349 L 549 324 L 535 324 L 534 325 L 531 336 L 507 398 L 503 397 L 476 324 Z"/><path d="M 198 324 L 198 327 L 249 443 L 263 443 L 286 395 L 290 384 L 296 373 L 298 366 L 300 364 L 313 336 L 313 334 L 317 327 L 317 324 L 291 324 L 258 400 L 256 400 L 254 397 L 225 324 Z"/><path d="M 155 324 L 155 441 L 180 441 L 180 324 Z"/><path d="M 18 324 L 21 335 L 25 342 L 28 351 L 37 369 L 39 376 L 48 394 L 49 399 L 51 401 L 69 443 L 83 443 L 96 416 L 96 414 L 100 408 L 102 401 L 113 379 L 114 374 L 118 368 L 122 357 L 124 355 L 129 342 L 135 331 L 137 324 L 110 324 L 105 338 L 103 340 L 101 347 L 78 399 L 76 399 L 73 395 L 56 351 L 46 329 L 45 324 Z"/><path d="M 729 328 L 723 332 L 712 343 L 705 355 L 702 364 L 701 375 L 700 376 L 700 389 L 703 405 L 707 415 L 712 423 L 721 432 L 734 440 L 750 444 L 770 444 L 784 441 L 799 456 L 804 455 L 815 444 L 815 442 L 805 432 L 805 429 L 812 422 L 818 411 L 821 402 L 822 390 L 823 389 L 823 376 L 822 375 L 821 363 L 819 356 L 814 346 L 803 334 L 796 329 L 783 324 L 779 324 L 774 322 L 747 322 Z M 756 340 L 771 341 L 779 344 L 786 349 L 793 359 L 797 374 L 796 396 L 791 409 L 787 413 L 785 413 L 773 401 L 771 401 L 758 414 L 758 416 L 764 422 L 763 425 L 752 425 L 743 421 L 735 413 L 730 405 L 726 389 L 726 374 L 731 357 L 735 351 L 743 344 L 750 341 L 755 341 Z"/><path d="M 636 322 L 609 379 L 609 381 L 601 396 L 598 405 L 596 407 L 581 441 L 609 441 L 615 424 L 619 418 L 665 418 L 668 422 L 673 436 L 676 441 L 703 441 L 698 428 L 696 426 L 686 403 L 682 397 L 680 390 L 669 369 L 664 356 L 661 352 L 660 347 L 658 345 L 647 322 Z M 641 363 L 644 364 L 651 381 L 652 386 L 657 397 L 656 402 L 627 402 L 626 401 L 626 398 L 636 375 L 636 372 Z"/><path d="M 362 322 L 319 413 L 319 415 L 311 430 L 307 441 L 334 441 L 344 418 L 391 418 L 393 420 L 402 441 L 429 441 L 423 426 L 421 424 L 421 422 L 412 405 L 412 403 L 394 367 L 394 365 L 373 322 Z M 366 363 L 369 363 L 371 366 L 377 384 L 383 397 L 382 402 L 353 402 L 352 401 L 352 398 Z"/><path d="M 599 105 L 559 171 L 559 175 L 569 193 L 573 198 L 621 280 L 702 280 L 702 276 L 692 261 L 601 105 Z"/><path d="M 553 22 L 550 23 L 547 30 L 515 83 L 515 85 L 512 88 L 510 93 L 494 118 L 491 125 L 488 128 L 486 133 L 467 163 L 467 165 L 463 170 L 463 175 L 503 243 L 506 242 L 513 231 L 524 210 L 544 178 L 545 174 L 550 167 L 554 158 L 593 92 L 593 87 Z"/><path d="M 457 21 L 454 22 L 427 69 L 403 108 L 403 110 L 393 125 L 347 205 L 343 210 L 331 232 L 304 276 L 304 279 L 386 279 L 414 230 L 441 186 L 442 182 L 445 179 L 447 174 L 496 92 L 496 90 L 482 67 L 478 58 L 474 53 L 474 51 Z"/><path d="M 438 20 L 357 20 L 328 68 L 319 85 L 309 100 L 309 102 L 291 131 L 291 133 L 288 136 L 279 153 L 247 206 L 247 209 L 252 219 L 257 226 L 281 271 L 286 278 L 288 278 L 365 146 L 368 143 L 368 141 L 386 112 L 386 110 L 389 107 L 398 90 L 402 85 L 418 56 L 438 23 Z"/><path d="M 137 18 L 138 23 L 159 57 L 165 69 L 171 77 L 171 79 L 195 118 L 237 191 L 239 193 L 241 193 L 253 172 L 262 159 L 262 157 L 266 152 L 266 150 L 269 147 L 271 142 L 281 127 L 281 124 L 229 35 L 218 18 Z"/>
  </g>
</svg>
